{
  "accessors": [
    {
      "bufferView": 1,
      "componentType": 5126,
      "count": 38,
      "max": [
        0.60000002384185791,
        1,
        1
      ],
      "min": [
        -0.60000002384185791,
        -1,
        -1
      ],
      "type": "VEC3"
    },
    {
      "bufferView": 1,
      "byteOffset": 456,
      "componentType": 5126,
      "count": 38,
      "max": [
        0,
        1,
        1
      ],
      "min": [
        0,
        -1,
        -1
      ],
      "type": "VEC3"
    },
    {
      "bufferView": 0,
      "componentType": 5125,
      "count": 66,
      "max": [
        37
      ],
      "min": [
        0
      ],
      "type": "SCALAR"
    },
    {
      "bufferView": 1,
      "byteOffset": 912,
      "componentType": 5126,
      "count": 48,
      "max": [
        1,
        1,
        1
      ],
      "min": [
        -0.60000002384185791,
        -1,
        -0.80000001192092896
      ],
      "type": "VEC3"
    },
    {
      "bufferView": 1,
      "byteOffset": 1488,
      "componentType": 5126,
      "count": 48,
      "max": [
        1,
        1,
        1
      ],
      "min": [
        -1,
        -1,
        -1
      ],
      "type": "VEC3"
    },
    {
      "bufferView": 0,
      "byteOffset": 264,
      "componentType": 5125,
      "count": 72,
      "max": [
        47
      ],
      "min": [
        0
      ],
      "type": "SCALAR"
    },
    {
      "bufferView": 1,
      "byteOffset": 2064,
      "componentType": 5126,
      "count": 156,
      "max": [
        1,
        1.8322199583053589,
        2.0237100124359131
      ],
      "min": [
        -1,
        -2.4074199199676514,
        -1
      ],
      "type": "VEC3"
    },
    {
      "bufferView": 1,
      "byteOffset": 3936,
      "componentType": 5126,
      "count": 156,
      "max": [
        1,
        1,
        1
      ],
      "min": [
        -1,
        -1,
        -1
      ],
      "type": "VEC3"
    },
    {
      "bufferView": 0,
      "byteOffset": 552,
      "componentType": 5125,
      "count": 342,
      "max": [
        155
      ],
      "min": [
        0
      ],
      "type": "SCALAR"
    },
    {
      "bufferView": 1,
      "byteOffset": 5808,
      "componentType": 5126,
      "count": 20,
      "max": [
        0.0010000000474974513,
        0.0010000000474974513,
        0.0010000000474974513
      ],
      "min": [
        -0.0010000000474974513,
        -0.0010000000474974513,
        -0.0010000000474974513
      ],
      "type": "VEC3"
    },
    {
      "bufferView": 1,
      "byteOffset": 6048,
      "componentType": 5126,
      "count": 20,
      "max": [
        1,
        1,
        1
      ],
      "min": [
        -1,
        -1,
        0
      ],
      "type": "VEC3"
    },
    {
      "bufferView": 0,
      "byteOffset": 1920,
      "componentType": 5125,
      "count": 30,
      "max": [
        19
      ],
      "min": [
        0
      ],
      "type": "SCALAR"
    },
    {
      "bufferView": 1,
      "byteOffset": 6288,
      "componentType": 5126,
      "count": 20,
      "max": [
        0.0010000000474974513,
        0.0010000000474974513,
        0.0010000000474974513
      ],
      "min": [
        -0.0010000000474974513,
        -0.0010000000474974513,
        -0.0010000000474974513
      ],
      "type": "VEC3"
    },
    {
      "bufferView": 1,
      "byteOffset": 6528,
      "componentType": 5126,
      "count": 20,
      "max": [
        1,
        1,
        1
      ],
      "min": [
        -1,
        -1,
        0
      ],
      "type": "VEC3"
    },
    {
      "bufferView": 0,
      "byteOffset": 2040,
      "componentType": 5125,
      "count": 30,
      "max": [
        19
      ],
      "min": [
        0
      ],
      "type": "SCALAR"
    },
    {
      "bufferView": 1,
      "byteOffset": 6768,
      "componentType": 5126,
      "count": 20,
      "max": [
        0.0010000000474974513,
        0.0010000000474974513,
        0.0010000000474974513
      ],
      "min": [
        -0.0010000000474974513,
        -0.0010000000474974513,
        -0.0010000000474974513
      ],
      "type": "VEC3"
    },
    {
      "bufferView": 1,
      "byteOffset": 7008,
      "componentType": 5126,
      "count": 20,
      "max": [
        1,
        1,
        1
      ],
      "min": [
        -1,
        -1,
        0
      ],
      "type": "VEC3"
    },
    {
      "bufferView": 0,
      "byteOffset": 2160,
      "componentType": 5125,
      "count": 30,
      "max": [
        19
      ],
      "min": [
        0
      ],
      "type": "SCALAR"
    },
    {
      "bufferView": 1,
      "byteOffset": 7248,
      "componentType": 5126,
      "count": 20,
      "max": [
        0.0010000000474974513,
        0.0010000000474974513,
        0.0010000000474974513
      ],
      "min": [
        -0.0010000000474974513,
        -0.0010000000474974513,
        -0.0010000000474974513
      ],
      "type": "VEC3"
    },
    {
      "bufferView": 1,
      "byteOffset": 7488,
      "componentType": 5126,
      "count": 20,
      "max": [
        1,
        1,
        1
      ],
      "min": [
        -1,
        -1,
        0
      ],
      "type": "VEC3"
    },
    {
      "bufferView": 0,
      "byteOffset": 2280,
      "componentType": 5125,
      "count": 30,
      "max": [
        19
      ],
      "min": [
        0
      ],
      "type": "SCALAR"
    }
  ],
  "asset": {
    "extras": {
      "author": "leifer.kopf (https://sketchfab.com/leifer.kopf)",
      "license": "CC-BY-4.0 (http://creativecommons.org/licenses/by/4.0/)",
      "source": "https://sketchfab.com/models/a11b8e0bfc8741f08472c09b10202c75",
      "title": "08 Printer #HouseholdPropsChallenge"
    },
    "generator": "Sketchfab-3.20.4",
    "version": "2.0"
  },
  "bufferViews": [
    {
      "buffer": 0,
      "byteLength": 2400,
      "byteOffset": 0,
      "name": "floatBufferViews",
      "target": 34963
    },
    {
      "buffer": 0,
      "byteLength": 7728,
      "byteOffset": 2400,
      "byteStride": 12,
      "name": "floatBufferViews",
      "target": 34962
    }
  ],
  "buffers": [
    {
      "byteLength": 10128,
      "uri": "./fax.bin"
    }
  ],
  "extensionsRequired": [
    "KHR_materials_pbrSpecularGlossiness"
  ],
  "extensionsUsed": [
    "KHR_materials_pbrSpecularGlossiness"
  ],
  "materials": [
    {
      "doubleSided": true,
      "emissiveFactor": [
        0,
        0,
        0
      ],
      "extensions": {
        "KHR_materials_pbrSpecularGlossiness": {
          "diffuseFactor": [
            0.032829706600000001,
            0.032829706600000001,
            0.032829706600000001,
            1
          ],
          "glossinessFactor": 1,
          "specularFactor": [
            0,
            0,
            0
          ]
        }
      },
      "name": "Buttons_Black"
    },
    {
      "doubleSided": true,
      "emissiveFactor": [
        0,
        0,
        0
      ],
      "extensions": {
        "KHR_materials_pbrSpecularGlossiness": {
          "diffuseFactor": [
            0.61286624990000005,
            0.0039257312000000001,
            0.0039257312000000001,
            1
          ],
          "glossinessFactor": 1,
          "specularFactor": [
            0,
            0,
            0
          ]
        }
      },
      "name": "Button_ONOFF"
    },
    {
      "doubleSided": true,
      "emissiveFactor": [
        0,
        0,
        0
      ],
      "extensions": {
        "KHR_materials_pbrSpecularGlossiness": {
          "diffuseFactor": [
            0.19413198270000001,
            0.19413198270000001,
            0.19413198270000001,
            1
          ],
          "glossinessFactor": 1,
          "specularFactor": [
            0,
            0,
            0
          ]
        }
      },
      "name": "Grey"
    },
    {
      "doubleSided": true,
      "emissiveFactor": [
        0,
        0,
        0
      ],
      "extensions": {
        "KHR_materials_pbrSpecularGlossiness": {
          "diffuseFactor": [
            0.68317165769999999,
            0.68317165769999999,
            0.68317165769999999,
            1
          ],
          "glossinessFactor": 1,
          "specularFactor": [
            0,
            0,
            0
          ]
        }
      },
      "name": "White"
    }
  ],
  "meshes": [
    {
      "name": "Cube_0",
      "primitives": [
        {
          "attributes": {
            "NORMAL": 1,
            "POSITION": 0
          },
          "indices": 2,
          "material": 2,
          "mode": 4
        }
      ]
    },
    {
      "name": "Cube_1",
      "primitives": [
        {
          "attributes": {
            "NORMAL": 4,
            "POSITION": 3
          },
          "indices": 5,
          "material": 0,
          "mode": 4
        }
      ]
    },
    {
      "name": "Cube_2",
      "primitives": [
        {
          "attributes": {
            "NORMAL": 7,
            "POSITION": 6
          },
          "indices": 8,
          "material": 3,
          "mode": 4
        }
      ]
    },
    {
      "name": "Cube.001_0",
      "primitives": [
        {
          "attributes": {
            "NORMAL": 10,
            "POSITION": 9
          },
          "indices": 11,
          "material": 1,
          "mode": 4
        }
      ]
    },
    {
      "name": "Cube.002_0",
      "primitives": [
        {
          "attributes": {
            "NORMAL": 13,
            "POSITION": 12
          },
          "indices": 14,
          "material": 0,
          "mode": 4
        }
      ]
    },
    {
      "name": "Cube.003_0",
      "primitives": [
        {
          "attributes": {
            "NORMAL": 16,
            "POSITION": 15
          },
          "indices": 17,
          "material": 0,
          "mode": 4
        }
      ]
    },
    {
      "name": "Cube.004_0",
      "primitives": [
        {
          "attributes": {
            "NORMAL": 19,
            "POSITION": 18
          },
          "indices": 20,
          "material": 0,
          "mode": 4
        }
      ]
    }
  ],
  "nodes": [
    {
      "children": [
        1
      ],
      "name": "RootNode (gltf orientation matrix)",
      "rotation": [
        -0.70710678118654746,
        -0,
        -0,
        0.70710678118654757
      ]
    },
    {
      "children": [
        2
      ],
      "name": "RootNode (model correction matrix)"
    },
    {
      "children": [
        3,
        7,
        9,
        11,
        13
      ],
      "name": "Root"
    },
    {
      "children": [
        4,
        5,
        6
      ],
      "matrix": [
        0.15000000000000002,
        0,
        0,
        0,
        0,
        0.075000000000000011,
        0,
        0,
        0,
        0,
        0.060000000000000012,
        0,
        0,
        0,
        0,
        1
      ],
      "name": "Cube"
    },
    {
      "mesh": 0,
      "name": "Cube_0"
    },
    {
      "mesh": 1,
      "name": "Cube_1"
    },
    {
      "mesh": 2,
      "name": "Cube_2"
    },
    {
      "children": [
        8
      ],
      "matrix": [
        5,
        0,
        0,
        0,
        0,
        2.1099900000000003,
        1.3408800000000001,
        0,
        0,
        -1.3408800000000001,
        2.1099900000000003,
        0,
        0.13624000000000003,
        -0.060370000000000014,
        0.055260000000000004,
        1
      ],
      "name": "Cube.001"
    },
    {
      "mesh": 3,
      "name": "Cube.001_0"
    },
    {
      "children": [
        10
      ],
      "matrix": [
        2.5,
        0,
        0,
        0,
        0,
        2.1099900000000003,
        1.3408800000000001,
        0,
        0,
        -1.3408800000000001,
        2.1099900000000003,
        0,
        0.12509999999999999,
        -0.060370000000000014,
        0.055260000000000004,
        1
      ],
      "name": "Cube.002"
    },
    {
      "mesh": 4,
      "name": "Cube.002_0"
    },
    {
      "children": [
        12
      ],
      "matrix": [
        2.5,
        0,
        0,
        0,
        0,
        2.1099900000000003,
        1.3408800000000001,
        0,
        0,
        -1.3408800000000001,
        2.1099900000000003,
        0,
        0.11638000000000001,
        -0.060370000000000014,
        0.055260000000000004,
        1
      ],
      "name": "Cube.003"
    },
    {
      "mesh": 5,
      "name": "Cube.003_0"
    },
    {
      "children": [
        14
      ],
      "matrix": [
        2.5,
        0,
        0,
        0,
        0,
        2.1099900000000003,
        1.3408800000000001,
        0,
        0,
        -1.3408800000000001,
        2.1099900000000003,
        0,
        0.10815000000000001,
        -0.060370000000000014,
        0.055260000000000004,
        1
      ],
      "name": "Cube.004"
    },
    {
      "mesh": 6,
      "name": "Cube.004_0"
    }
  ],
  "scene": 0,
  "scenes": [
    {
      "name": "OSG_Scene",
      "nodes": [
        0
      ]
    }
  ]
}

